<!-- Generated by IcoMoon.io -->
<svg version="1.1" xmlns="http://www.w3.org/2000/svg" width="32" height="32" viewBox="0 0 32 32">
<title>wheel-lucky-game-svgrepo-com</title>
<path fill="#8fd7f8" d="M25.325 24.89v-4.295l-9.665-1.745-8.985 1.745v4.295l8.545 1.8 10.105-1.8z"></path>
<path fill="#d9f0f3" d="M5.62 24.89h20.755c0.475 0 0.865 0.39 0.865 0.865v1.785c0 0.475-0.39 0.865-0.865 0.865h-20.755c-0.475 0-0.865-0.385-0.865-0.865v-1.785c0-0.475 0.385-0.865 0.865-0.865z"></path>
<path fill="#f0f3f5" d="M22.435 27.31v-3.74l-6.815-0.875-6.055 0.875v3.74l6.84 0.795 6.030-0.795z"></path>
<path fill="#b8e3ee" d="M24.595 24.89c0.48 0 0.865 0.385 0.865 0.865v1.785c0 0.48-0.385 0.865-0.865 0.865h1.785c0.48 0 0.865-0.385 0.865-0.865v-1.785c0-0.48-0.385-0.865-0.865-0.865h-1.785z"></path>
<path fill="#8996a8" d="M8.115 6.5c-2.11 2.1-3.29 4.93-3.3 7.885l3.305 7.88c2.085 2.1 4.92 3.29 7.88 3.305l7.885-3.3c2.11-2.095 3.29-4.925 3.3-7.885l-3.305-7.88c-2.085-2.1-4.92-3.29-7.88-3.305l-7.885 3.3z"></path>
<path fill="#9fa9b6" d="M16 14.385h-11.185c0.015 2.96 1.205 5.795 3.305 7.88l7.88-7.88z"></path>
<path fill="#9fa9b6" d="M16 14.385v11.185c2.965 0 5.81-1.18 7.905-3.28l-7.905-7.905z"></path>
<path fill="#9fa9b6" d="M16 14.385h11.185c0-2.965-1.18-5.81-3.275-7.91l-7.91 7.91z"></path>
<path fill="#9fa9b6" d="M16 2.965l-2.73 0.575c-1.955 0.5-3.74 1.52-5.165 2.955l7.89 7.89v-11.42z"></path>
<path fill="#e8a3c1" d="M22.25 8.17c-1.13-1.13-2.545-1.93-4.095-2.32h-2.155l-6.235 2.335c-1.66 1.655-2.595 3.895-2.605 6.235l2.61 6.23c1.65 1.66 3.885 2.6 6.225 2.61l6.245-2.59c1.66-1.655 2.59-3.905 2.59-6.25l-2.59-6.25z"></path>
<path fill="#f0f3f5" d="M16 14.42h-8.84c0.010 2.34 0.95 4.58 2.61 6.23l6.225-6.23z"></path>
<path fill="#f0f3f5" d="M16 14.42v8.84c2.345 0 4.59-0.935 6.245-2.59l-6.245-6.25z"></path>
<path fill="#f0f3f5" d="M16 14.42h8.84c0-2.345-0.93-4.59-2.59-6.25l-6.25 6.25z"></path>
<path fill="#f0f3f5" d="M16 5.85h-2.155c-1.545 0.395-2.955 1.205-4.080 2.335l6.235 6.235v-8.57z"></path>
<path fill="#f2d865" d="M18.385 4.67c0 2.1-2.385 4.165-2.385 4.165s-2.385-2.065-2.385-4.165c0-1.315 1.065-2.17 2.385-2.17s2.385 0.855 2.385 2.17z"></path>
<path fill="#e4ecf0" d="M8.855 27.31h14.29c0.605 0 1.095 0.49 1.095 1.095s-0.49 1.095-1.095 1.095h-14.29c-0.605 0-1.095-0.49-1.095-1.095s0.49-1.095 1.095-1.095z"></path>
<path fill="#d9e3e9" d="M21.030 27.31c0.605 0 1.095 0.49 1.095 1.095s-0.49 1.095-1.095 1.095h2.115c0.605 0 1.095-0.49 1.095-1.095s-0.49-1.095-1.095-1.095h-2.115z"></path>
<path fill="#000" d="M16.5 4.705c0 0.276-0.224 0.5-0.5 0.5s-0.5-0.224-0.5-0.5c0-0.276 0.224-0.5 0.5-0.5s0.5 0.224 0.5 0.5z"></path>
<path fill="#000" d="M5.62 28.905h1.74c0.21 0.63 0.79 1.095 1.495 1.095h14.29c0.7 0 1.28-0.465 1.495-1.095h1.74c0.75 0 1.365-0.61 1.365-1.365v-1.785c0-0.75-0.61-1.365-1.365-1.365h-0.55v-3.675c1.17-1.82 1.86-3.98 1.86-6.3 0-5.59-3.955-10.365-9.425-11.445-0.515-0.6-1.31-0.975-2.26-0.975s-1.745 0.375-2.26 0.975c-5.47 1.080-9.425 5.855-9.425 11.445 0 2.32 0.69 4.48 1.86 6.3v3.67h-0.55c-0.75 0-1.365 0.61-1.365 1.365v1.785c0 0.755 0.61 1.365 1.365 1.365zM23.14 29h-14.285c-0.33 0-0.595-0.265-0.595-0.595s0.265-0.595 0.595-0.595h14.29c0.33 0 0.595 0.265 0.595 0.595s-0.265 0.595-0.595 0.595zM5.34 14.92h1.37c0.12 2.195 0.99 4.18 2.37 5.715l-0.97 0.97c-1.625-1.785-2.65-4.115-2.77-6.68zM15.5 9.055v4.16l-5.025-5.025c0.875-0.775 1.93-1.36 3.1-1.72 0.575 1.225 1.54 2.215 1.93 2.585zM18.43 6.47c1.17 0.355 2.22 0.945 3.1 1.72l-5.025 5.025v-4.16c0.39-0.37 1.35-1.36 1.93-2.585zM23.89 21.6l-0.97-0.97c1.38-1.535 2.25-3.52 2.37-5.715h1.37c-0.12 2.57-1.145 4.9-2.77 6.68zM16.5 25.075v-1.37c2.195-0.12 4.175-0.99 5.715-2.37l0.97 0.97c-1.785 1.625-4.115 2.65-6.68 2.77zM17.205 14.915h7.085c-0.115 1.92-0.875 3.655-2.075 5.005l-5.010-5.005zM21.505 20.63c-1.355 1.2-3.085 1.96-5.005 2.075v-7.080l5.005 5.005zM9.785 19.925c-1.2-1.355-1.96-3.090-2.075-5.005h7.085l-5.010 5.005zM15.5 15.625v7.080c-1.92-0.115-3.655-0.875-5.005-2.075l5.005-5.005zM25.295 13.915c-0.115-2.175-0.975-4.17-2.365-5.72l0.955-0.955c1.63 1.79 2.64 4.12 2.76 6.67h-1.345zM24.295 13.915h-7.085l5.015-5.015c1.21 1.365 1.96 3.11 2.075 5.015zM14.79 13.915h-7.085c0.115-1.905 0.865-3.65 2.075-5.015l5.015 5.015zM6.705 13.915h-1.345c0.12-2.55 1.125-4.88 2.76-6.67l0.955 0.955c-1.39 1.55-2.25 3.54-2.365 5.72zM9.79 21.335c1.535 1.38 3.52 2.25 5.715 2.37v1.37c-2.57-0.12-4.895-1.145-6.68-2.77l0.97-0.97zM10.065 24.46c1.74 1.035 3.765 1.64 5.935 1.64s4.195-0.605 5.935-1.64v2.345h-11.87v-2.345zM26.74 25.75v1.785c0 0.205-0.16 0.365-0.365 0.365h-1.74c-0.21-0.63-0.79-1.095-1.495-1.095h-0.21v-1.42h3.44c0.205 0 0.365 0.16 0.365 0.365zM24.825 24.385h-1.89v-0.59c0.955-0.71 1.36-1.135 1.89-1.75v2.335zM23.175 6.535l-0.94 0.94c-0.975-0.88-2.155-1.535-3.465-1.945 0.070-0.285 0.11-0.575 0.11-0.865 0-0.175-0.020-0.345-0.050-0.505 1.655 0.455 3.13 1.27 4.345 2.375zM15.995 2.995c1.11 0 1.885 0.685 1.885 1.67 0 1.405-1.265 2.855-1.885 3.475-0.615-0.62-1.885-2.070-1.885-3.475 0-0.985 0.775-1.67 1.885-1.67zM13.16 4.16c-0.030 0.165-0.050 0.33-0.050 0.505 0 0.29 0.040 0.58 0.11 0.865-1.31 0.41-2.485 1.065-3.465 1.945l-0.94-0.94c1.215-1.105 2.69-1.92 4.345-2.375zM7.175 22.055c0.585 0.675 0.98 1.070 1.89 1.75v0.59h-1.89v-2.335zM5.26 25.755c0-0.205 0.16-0.365 0.365-0.365h3.44v1.42h-0.21c-0.7 0-1.28 0.465-1.495 1.095h-1.74c-0.205 0-0.365-0.16-0.365-0.365v-1.785z"></path>
</svg>
